<?xml version="1.0" encoding="utf-8"?>
<!-- Generator: Adobe Illustrator 27.6.1, SVG Export Plug-In . SVG Version: 6.00 Build 0)  -->
<svg version="1.1" id="svg5" xmlns:svg="http://www.w3.org/2000/svg"
	 xmlns="http://www.w3.org/2000/svg" xmlns:xlink="http://www.w3.org/1999/xlink" x="0px" y="0px" viewBox="0 0 1668.6 1221.2"
	 style="enable-background:new 0 0 1668.6 1221.2;" xml:space="preserve">
<style type="text/css">
	.st0{display:none;}
	.st1{display:inline;fill:#FFFFFF;}
	.st2{fill:#FFFFFF;}
	.st3{display:none;fill-rule:evenodd;clip-rule:evenodd;fill:#FFFFFF;}
	.st4{display:inline;}
</style>
<g id="layer1" transform="translate(52.390088,-25.058597)" class="st0">
	<path id="path1009" class="st1" d="M283.9,167.3L670.3,684l-388.8,420H369l340.4-367.8l275,367.8h297.8l-408-545.7l361.9-391h-87.5
		L835.1,506L581.7,167.3H283.9z M412.6,231.8h136.8l604.1,807.8h-136.8L412.6,231.8z"/>
</g>
<g>
	<path class="st2" d="M595.9,142.2L430.3,308.7v0.3l0,0v601.9h202v168l169.9-168H934l301.6-299.4l-1.3,0.8l0,0l1.4-0.8V211l0,0
		v-68.7H595.9z M1166.8,576.7l-132,132l-134.5,0.2L783.1,826.2V711.7H631.8V211h535.1V576.7z"/>
	<rect x="816.1" y="325.4" class="st2" width="68.7" height="203.5"/>
	<rect x="1001.4" y="325.4" class="st2" width="68.7" height="203.5"/>
</g>
<path class="st3" d="M833.4,142.2c-263.6,0-476.7,214.7-476.7,480.2c0,212.3,136.5,392,325.9,455.6c23.7,4.8,32.4-10.3,32.4-23
	c0-11.1-0.8-49.3-0.8-89.1C581.6,994.6,554,908.7,554,908.7c-21.3-55.7-52.9-70-52.9-70c-43.4-29.4,3.2-29.4,3.2-29.4
	c48.1,3.2,73.4,49.3,73.4,49.3c42.6,73.1,111.3,52.5,138.9,39.8c3.9-31,16.6-52.5,30-64.4c-105.8-11.1-217-52.5-217-236.9
	c0-52.5,18.9-95.4,48.9-128.8c-4.7-11.9-21.3-61.2,4.7-127.2c0,0,40.2-12.7,131,49.3c38.9-10.5,78.9-15.9,119.2-15.9
	c40.2,0,81.3,5.6,119.2,15.9c90.8-62,131-49.3,131-49.3c26.1,66,9.5,115.3,4.7,127.2c30.8,33.4,48.9,76.3,48.9,128.8
	c0,184.5-111.3,225-217.8,236.9c17.4,15.1,32.4,43.7,32.4,89c0,64.4-0.8,116.1-0.8,132c0,12.7,8.7,27.8,32.4,23.1
	c189.4-63.6,325.9-243.3,325.9-455.6C1310,356.9,1096.2,142.2,833.4,142.2z"/>
<g class="st0">
	<g class="st4">
		<g>
			<path class="st2" d="M1180.9,292c-63.4-29.6-132.5-50.7-204.4-63.4c-1.4,0-2.8,0-2.8,1.4c-8.5,15.5-18.3,36.7-25.4,52.2
				c-77.5-11.3-153.6-11.3-228.4,0c-7-16.9-16.9-36.7-25.4-52.2c0-1.4-1.4-1.4-2.8-1.4c-71.9,12.7-139.6,33.8-204.4,63.4
				c0,0-1.4,0-1.4,1.4c-129.7,193.1-164.9,382-148,569.5c0,1.4,0,1.4,1.4,2.8c86,63.4,169.2,101.5,249.5,126.9c1.4,0,2.8,0,2.8-1.4
				c19.7-26.8,36.7-53.6,50.7-83.2c1.4-1.4,0-4.2-1.4-4.2c-26.8-9.9-53.6-22.6-77.5-36.7c-1.4-1.4-2.8-4.2,0-5.6
				c5.6-4.2,9.9-8.5,15.5-12.7c1.4-1.4,2.8-1.4,2.8,0c163.5,74.7,341.1,74.7,503.2,0c1.4,0,2.8,0,2.8,0c5.6,4.2,9.9,8.5,15.5,12.7
				c1.4,1.4,1.4,4.2,0,5.6c-25.4,14.1-50.7,26.8-77.5,36.7c-1.4,0-2.8,2.8-1.4,4.2c15.5,29.6,32.4,56.4,50.7,83.2
				c1.4,1.4,2.8,1.4,2.8,1.4c81.8-25.4,164.9-63.4,250.9-126.9c1.4,0,1.4-1.4,1.4-2.8C1351.4,647.3,1295,459.8,1180.9,292
				C1182.3,292,1180.9,292,1180.9,292z M667.8,748.7c-49.3,0-90.2-45.1-90.2-101.5c0-56.4,39.5-101.5,90.2-101.5
				S758,590.9,758,647.3C758,703.6,718.5,748.7,667.8,748.7z M1000.4,748.7c-49.3,0-90.2-45.1-90.2-101.5
				c0-56.4,39.5-101.5,90.2-101.5c50.7,0,90.2,45.1,90.2,101.5C1090.6,703.6,1051.2,748.7,1000.4,748.7z"/>
		</g>
	</g>
</g>
</svg>
